<?xml version="1.0" standalone="no"?>
<!DOCTYPE svg PUBLIC "-//W3C//DTD SVG 20010904//EN"
 "http://www.w3.org/TR/2001/REC-SVG-20010904/DTD/svg10.dtd">
<svg version="1.0" xmlns="http://www.w3.org/2000/svg"
 width="455.000000pt" height="470.000000pt" viewBox="0 0 455.000000 470.000000"
 preserveAspectRatio="xMidYMid meet">
<metadata>
Created by potrace 1.16, written by Peter Selinger 2001-2019
</metadata>
<g transform="translate(0.000000,470.000000) scale(0.100000,-0.100000)"
fill="#18558C" stroke="none">
<path d="M2260 2841 l0 -660 53 56 c28 31 79 78 112 105 122 101 195 180 228
247 30 61 32 72 32 171 0 119 -13 168 -76 294 -38 75 -174 259 -238 324 -16
15 -47 50 -70 76 l-41 47 0 -660z"/>
<path d="M2164 2889 c-61 -67 -285 -187 -387 -206 -38 -7 -57 -20 -57 -40 0
-8 6 -21 13 -28 6 -8 27 -40 45 -72 18 -32 56 -83 85 -114 43 -46 254 -236
320 -288 16 -13 17 7 17 378 0 215 -4 391 -8 391 -5 0 -17 -9 -28 -21z"/>
<path d="M1231 2568 c-5 -18 -15 -78 -22 -134 -53 -453 237 -944 669 -1133 75
-33 297 -89 308 -78 3 3 -16 32 -43 64 -59 69 -83 107 -83 128 0 23 10 17 76
-44 l59 -55 3 102 c2 86 0 107 -18 142 -27 52 -99 108 -185 144 -234 95 -337
160 -457 285 -151 156 -234 313 -273 516 -9 50 -19 91 -20 93 -2 2 -8 -12 -14
-30z"/>
<path d="M2925 2549 c-16 -5 -54 -14 -84 -20 -120 -23 -174 -47 -231 -100 -30
-28 -94 -87 -142 -130 -92 -83 -151 -145 -186 -196 -21 -30 -22 -40 -22 -275
l1 -243 27 30 c40 45 149 135 217 180 33 22 62 42 65 45 3 3 39 28 80 55 96
64 238 205 273 271 41 79 57 155 57 281 0 121 1 119 -55 102z"/>
<path d="M1751 2444 c4 -22 30 -103 57 -180 28 -76 59 -179 71 -228 40 -168
86 -239 196 -301 33 -18 71 -45 84 -59 14 -14 28 -26 33 -26 4 0 8 80 8 178 0
212 6 199 -141 333 -132 121 -268 256 -296 294 l-21 30 9 -41z"/>
<path d="M3130 2239 c-108 -20 -116 -25 -156 -97 -52 -95 -190 -228 -339 -327
-148 -99 -254 -185 -323 -259 l-52 -58 0 -116 0 -116 35 41 c69 81 267 211
395 259 91 34 301 122 322 135 13 8 36 21 52 29 65 33 135 110 175 194 37 75
75 201 83 271 3 26 -1 31 -32 42 -40 14 -95 14 -160 2z"/>
</g>
</svg>
